<?xml version="1.0" ?><svg viewBox="0 0 64 64" xmlns="http://www.w3.org/2000/svg"><g data-name="crown, king, prince, love, heart, valnetine, february" id="crown_king_prince_love_heart_valnetine_february"><path d="M45.8193,61H18.1807a5.9736,5.9736,0,0,1-5.8457-4.6475L3.0518,16.251a2,2,0,0,1,2.84-2.2412l7.2558,3.6167a5.9651,5.9651,0,0,0,7.3389-1.5928l9.959-12.2925A2.0013,2.0013,0,0,1,32,3h.0049a2.0016,2.0016,0,0,1,1.5552.748l9.3388,11.6377a5.98,5.98,0,0,0,6.8389,1.8433L58.28,13.9336a2,2,0,0,1,2.6679,2.3174L51.6655,56.3516A5.9744,5.9744,0,0,1,45.8193,61ZM7.9053,19.4829l8.3266,35.9683A1.9922,1.9922,0,0,0,18.1807,57H45.8193a1.993,1.993,0,0,0,1.9493-1.55l8.4326-36.4268-5.024,1.938A9.9716,9.9716,0,0,1,39.7788,17.89L31.9927,8.1865l-8.398,10.3653a9.94,9.94,0,0,1-12.2309,2.6547Z" style="fill:#ff499e"/><path d="M25.1,42H10.6a2,2,0,0,1-1.9487-1.55l-1.85-8A2,2,0,0,1,8.75,30h12.3a2,2,0,0,1,1.9771,1.6982,16.7661,16.7661,0,0,0,3.6289,7.045A2,2,0,0,1,25.1,42ZM12.19,38h9.09A19.1932,19.1932,0,0,1,19.47,34H11.2651Z" style="fill:#ff499e"/><path d="M53.4,42H38.9a2,2,0,0,1-1.5557-3.2568,16.7661,16.7661,0,0,0,3.6289-7.045A2,2,0,0,1,42.95,30h12.3a2,2,0,0,1,1.9487,2.4507l-1.85,8A2,2,0,0,1,53.4,42ZM42.72,38h9.09l.9253-4H44.53A19.1932,19.1932,0,0,1,42.72,38Z" style="fill:#ff499e"/><path d="M32,47c-3.4561,0-7.0659-4.0176-8.4575-5.7451a20.2426,20.2426,0,0,1-4.47-8.9531A9.2621,9.2621,0,0,1,18.97,30.98a5.6734,5.6734,0,0,1,1.5762-4.124,5.9943,5.9943,0,0,1,4.7187-1.8443c2.72.1753,5.1973,2.1143,6.7359,3.627C33.6143,27.0532,36.26,25,39.14,25a5.9452,5.9452,0,0,1,5.7871,7.3013v.0005a20.2433,20.2433,0,0,1-4.4716,8.955C39.0659,42.9824,35.4561,47,32,47ZM24.8628,28.9985a2.025,2.025,0,0,0-1.49.6875A1.6394,1.6394,0,0,0,22.97,30.98a5.2771,5.2771,0,0,0,.06.7383,16.7774,16.7774,0,0,0,3.626,7.0249C29.0215,41.68,31.2046,43,32,43s2.9785-1.32,5.3423-4.2549a16.7669,16.7669,0,0,0,3.6308-7.0469,2.4551,2.4551,0,0,0-.3471-2.0141A2.0093,2.0093,0,0,0,39.14,29c-1.87,0-4.4023,2.3589-5.5595,3.8457a2.0025,2.0025,0,0,1-1.58.7734h-.0039a2.0023,2.0023,0,0,1-1.58-.7768c-.7407-.9522-3.3306-3.7085-5.4146-3.8394C24.9556,29,24.9087,28.9985,24.8628,28.9985ZM42.95,32h0Z" style="fill:#ff499e"/><path d="M45.8193,61H18.1807a5.9736,5.9736,0,0,1-5.8457-4.6475L11.2012,51.45A2,2,0,0,1,13.15,49h37.7a2,2,0,0,1,1.9487,2.45l-1.1333,4.9014A5.9744,5.9744,0,0,1,45.8193,61ZM15.665,53l.5669,2.4512A1.9922,1.9922,0,0,0,18.1807,57H45.8193a1.993,1.993,0,0,0,1.9493-1.55L48.335,53Z" style="fill:#ff499e"/><rect height="64" style="fill:none" width="64"/></g></svg>